<svg width="569" height="431" viewBox="0 0 569 431" fill="none" xmlns="http://www.w3.org/2000/svg">
<path d="M377 221C389 422.016 246.15 422.016 149.5 422.016C52.8502 422.016 -25.5 343.666 -25.5 247.016C-25.5 150.366 -8.14983 44.5 88.5 44.5C185.15 44.5 377 124.35 377 221Z" fill="#453B3B"/>
<path d="M381.52 431.727C222.585 555.385 141.739 437.614 87.0406 357.931C32.342 278.249 52.5952 169.312 132.277 114.613C211.96 59.9147 309.059 14.3042 363.758 93.9864C418.457 173.669 461.202 377.029 381.52 431.727Z" fill="#F4F4F4"/>
<path d="M506.287 384.255C503.384 389.407 497.565 394.313 488.655 398.672C479.805 403 468.32 406.587 454.704 409.339C427.482 414.841 392.352 416.889 354.2 415.265C277.807 412.012 190.334 394.084 131.098 360.71C71.8959 327.355 49.7164 290.196 45.19 255.906C40.6228 221.306 53.8572 188.502 67.8299 163.702C81.8456 138.825 102.02 110.939 132.909 97.3172C163.501 83.826 205.729 83.8673 264.988 117.255C324.604 150.843 392.065 206.261 441.061 259.513C465.566 286.146 485.279 312.052 497.095 334.247C503.005 345.349 506.838 355.337 508.386 363.894C509.934 372.456 509.133 379.203 506.287 384.255Z" stroke="#57706F" stroke-width="9"/>
<path d="M389.221 403.125C293.838 449.826 260.809 368.51 238.462 313.493C216.116 258.477 236.259 198.337 283.454 179.167C330.649 159.998 316.153 161.483 338.5 216.5C360.847 271.517 436.416 383.955 389.221 403.125Z" fill="#F4F4F4"/>
<path d="M300.922 425.759C178.189 484.644 124.335 421.357 91.6202 354.113C83.8498 338.142 72.5252 333.334 66.5 318.5C29.5376 227.5 111.599 200.923 186.5 170.5C261.401 140.077 281.108 118.713 312.5 196C343.892 273.287 375.824 395.336 300.922 425.759Z" fill="#F4F4F4"/>
<path d="M378.804 431.806C310.53 463.532 284.029 436.636 269.046 407.11C265.487 400.097 259.585 398.334 256.92 391.774C240.575 351.532 288.044 296.185 329.496 279.348C370.948 262.511 399.182 264.862 413.064 299.039C426.947 333.216 420.256 414.969 378.804 431.806Z" fill="#F4F4F4"/>
<g filter="url(#filter0_d_1_27)">
<rect x="233.771" y="217" width="121" height="121" rx="5" transform="rotate(27.4464 233.771 217)" fill="#F36C6C"/>
</g>
<circle cx="197" cy="246" r="7" fill="#3E3535"/>
<circle cx="197" cy="266" r="7" fill="#3E3535"/>
<circle cx="197" cy="286" r="7" fill="#3E3535"/>
<defs>
<filter id="filter0_d_1_27" x="179.741" y="218.741" width="185.67" height="163.67" filterUnits="userSpaceOnUse" color-interpolation-filters="sRGB">
<feFlood flood-opacity="0" result="BackgroundImageFix"/>
<feColorMatrix in="SourceAlpha" type="matrix" values="0 0 0 0 0 0 0 0 0 0 0 0 0 0 0 0 0 0 127 0" result="hardAlpha"/>
<feOffset dx="26" dy="4"/>
<feComposite in2="hardAlpha" operator="out"/>
<feColorMatrix type="matrix" values="0 0 0 0 0 0 0 0 0 0 0 0 0 0 0 0 0 0 1 0"/>
<feBlend mode="normal" in2="BackgroundImageFix" result="effect1_dropShadow_1_27"/>
<feBlend mode="normal" in="SourceGraphic" in2="effect1_dropShadow_1_27" result="shape"/>
</filter>
</defs>
</svg>
